<?xml version="1.0" encoding="utf-8"?>
<!-- Generator: Adobe Illustrator 18.1.1, SVG Export Plug-In . SVG Version: 6.00 Build 0)  -->
<!DOCTYPE svg PUBLIC "-//W3C//DTD SVG 1.1//EN" "http://www.w3.org/Graphics/SVG/1.1/DTD/svg11.dtd">
<svg version="1.1" id="Layer_1" xmlns="http://www.w3.org/2000/svg" xmlns:xlink="http://www.w3.org/1999/xlink" x="0px" y="0px"
	 viewBox="0 0 36 36" enable-background="new 0 0 36 36" xml:space="preserve">
<g>
	<rect x="6" y="8" fill="#F15E55" width="3" height="3"/>
	<rect x="9" y="11" fill="#F15E55" width="3" height="3"/>
	<rect x="12" y="14" fill="#F15E55" width="3" height="3"/>
	<rect x="9" y="17" fill="#F15E55" width="3" height="3"/>
	<rect x="6" y="20" fill="#F15E55" width="3" height="3"/>
	<rect x="18" y="25" fill="#F15E55" width="11" height="2"/>
	<path fill="#F15E55" d="M0,0v36h36V0H0z M34,34H2V2h32V34z"/>
	<polygon fill="#F15E55" points="21,17 28,17 28,14 21,14 21,11 29,11 29,8 21,8 18,8 18,22 21,22 	"/>
</g>
</svg>
