<?xml version="1.0" encoding="utf-8"?>
<!-- Generator: Adobe Illustrator 18.1.1, SVG Export Plug-In . SVG Version: 6.00 Build 0)  -->
<!DOCTYPE svg PUBLIC "-//W3C//DTD SVG 1.1//EN" "http://www.w3.org/Graphics/SVG/1.1/DTD/svg11.dtd">
<svg version="1.1" id="Layer_1" xmlns="http://www.w3.org/2000/svg" xmlns:xlink="http://www.w3.org/1999/xlink" x="0px" y="0px"
	 viewBox="0 0 125 20" enable-background="new 0 0 125 20" xml:space="preserve">
<g>
	<path d="M15.4,1.1h10.3v2.5h-7.3v3.3h6.4v2.5h-6.4v6h-3V1.1z"/>
	<path d="M31.4,15.5h-2.8V1.1h2.8V15.5z"/>
	<path d="M39.5,9c0.5-0.1,0.9-0.1,1.1-0.2C41,8.6,41.2,8.3,41.2,8c0-0.4-0.2-0.7-0.5-0.9c-0.3-0.2-0.8-0.2-1.4-0.2
		c-0.7,0-1.1,0.2-1.4,0.5c-0.2,0.2-0.3,0.6-0.4,1h-2.7C35,7.4,35.2,6.6,35.7,6c0.7-0.9,2-1.4,3.8-1.4c1.2,0,2.2,0.2,3.1,0.7
		S44,6.6,44,7.9v4.9c0,0.3,0,0.7,0,1.2c0,0.4,0.1,0.6,0.2,0.7s0.2,0.2,0.4,0.3v0.4h-3c-0.1-0.2-0.1-0.4-0.2-0.6s-0.1-0.4-0.1-0.6
		c-0.4,0.4-0.8,0.8-1.3,1.1c-0.6,0.3-1.3,0.5-2,0.5c-1,0-1.8-0.3-2.4-0.8c-0.6-0.6-0.9-1.3-0.9-2.3c0-1.3,0.5-2.3,1.5-2.8
		c0.6-0.3,1.4-0.5,2.5-0.7L39.5,9z M41.2,10.3c-0.2,0.1-0.4,0.2-0.5,0.3s-0.4,0.1-0.7,0.2l-0.6,0.1c-0.6,0.1-1,0.2-1.3,0.4
		c-0.4,0.3-0.7,0.6-0.7,1.2c0,0.5,0.1,0.8,0.4,1s0.6,0.3,1,0.3c0.6,0,1.2-0.2,1.7-0.5c0.5-0.4,0.8-1,0.8-1.9V10.3z"/>
	<path d="M49.8,12.1c0.1,0.5,0.2,0.8,0.4,1.1c0.3,0.4,1,0.6,1.9,0.6c0.5,0,1-0.1,1.3-0.2c0.3-0.2,0.5-0.4,0.5-0.7
		c0-0.3-0.1-0.6-0.4-0.7s-1.2-0.4-2.9-0.8c-1.2-0.3-2.1-0.7-2.6-1.1c-0.5-0.4-0.7-1.1-0.7-1.9c0-1,0.4-1.8,1.2-2.5
		c0.8-0.7,1.9-1.1,3.3-1.1c1.3,0,2.4,0.3,3.3,0.8c0.8,0.5,1.3,1.4,1.4,2.7h-2.8c0-0.4-0.1-0.6-0.3-0.8c-0.3-0.4-0.8-0.6-1.6-0.6
		c-0.6,0-1,0.1-1.3,0.3s-0.4,0.4-0.4,0.7c0,0.3,0.1,0.6,0.4,0.7c0.3,0.1,1.2,0.4,2.9,0.8c1.1,0.3,1.9,0.7,2.5,1.2
		c0.5,0.5,0.8,1.2,0.8,2c0,1.1-0.4,1.9-1.2,2.6c-0.8,0.7-2,1-3.6,1c-1.7,0-2.9-0.4-3.7-1.1c-0.8-0.7-1.2-1.6-1.2-2.7H49.8z"/>
	<path d="M67.6,4.9c0.5,0.2,1,0.6,1.3,1c0.3,0.4,0.5,0.8,0.5,1.2c0.1,0.4,0.1,1.1,0.1,2.1v6.3h-2.8V9c0-0.6-0.1-1-0.3-1.4
		c-0.3-0.5-0.7-0.7-1.4-0.7c-0.7,0-1.3,0.2-1.7,0.7c-0.4,0.5-0.6,1.2-0.6,2.1v5.8H60V1.1h2.8v5.1c0.4-0.6,0.9-1,1.4-1.3
		s1.1-0.4,1.7-0.4C66.5,4.6,67.1,4.7,67.6,4.9z"/>
	<path d="M79.7,8.7c-0.1-0.4-0.2-0.8-0.4-1.1c-0.3-0.4-0.8-0.6-1.5-0.6c-0.9,0-1.6,0.5-1.9,1.4c-0.2,0.5-0.3,1.1-0.3,2
		c0,0.8,0.1,1.4,0.3,1.9c0.3,0.9,1,1.3,1.9,1.3c0.7,0,1.1-0.2,1.4-0.5c0.3-0.4,0.4-0.8,0.5-1.4h2.8c-0.1,0.8-0.4,1.6-0.9,2.4
		c-0.9,1.2-2.2,1.8-3.9,1.8s-3-0.5-3.8-1.5c-0.8-1-1.2-2.3-1.2-4c0-1.8,0.4-3.2,1.3-4.3s2.1-1.5,3.7-1.5c1.3,0,2.4,0.3,3.3,0.9
		s1.4,1.7,1.5,3.2H79.7z"/>
	<path d="M94.6,14.2c-0.9,1.1-2.3,1.7-4.1,1.7s-3.2-0.6-4.1-1.7s-1.3-2.4-1.3-4c0-1.5,0.4-2.9,1.3-4s2.3-1.7,4.1-1.7
		s3.2,0.6,4.1,1.7s1.3,2.5,1.3,4C95.9,11.7,95.5,13.1,94.6,14.2z M92.3,12.6c0.4-0.6,0.7-1.4,0.7-2.5c0-1.1-0.2-1.9-0.7-2.5
		c-0.4-0.6-1.1-0.9-1.9-0.9S89,7.1,88.6,7.7c-0.4,0.6-0.7,1.4-0.7,2.5c0,1.1,0.2,1.9,0.7,2.5s1.1,0.9,1.9,0.9S91.9,13.2,92.3,12.6z"
		/>
	<path d="M104.8,5c0.5,0.3,0.9,0.7,1.2,1.2V1.1h2.8v14.4h-2.7V14c-0.4,0.6-0.8,1.1-1.4,1.4s-1.1,0.4-1.9,0.4c-1.2,0-2.3-0.5-3.1-1.5
		s-1.3-2.3-1.3-3.9c0-1.8,0.4-3.2,1.3-4.3s2-1.6,3.4-1.6C103.7,4.6,104.2,4.7,104.8,5z M105.4,12.6c0.4-0.6,0.6-1.3,0.6-2.3
		c0-1.3-0.3-2.2-1-2.8c-0.4-0.3-0.9-0.5-1.4-0.5c-0.8,0-1.4,0.3-1.8,0.9s-0.6,1.4-0.6,2.3c0,1,0.2,1.8,0.6,2.4s1,0.9,1.8,0.9
		S105,13.2,105.4,12.6z"/>
	<path d="M119.5,5.1c0.7,0.3,1.4,0.9,1.8,1.6c0.4,0.6,0.7,1.4,0.8,2.2c0.1,0.5,0.1,1.2,0.1,2.1h-7.8c0,1.1,0.4,1.8,1.1,2.2
		c0.4,0.3,0.9,0.4,1.5,0.4c0.6,0,1.1-0.2,1.5-0.5c0.2-0.2,0.4-0.4,0.6-0.7h2.8c-0.1,0.6-0.4,1.3-1,1.9c-1,1-2.3,1.6-4,1.6
		c-1.4,0-2.7-0.4-3.8-1.3s-1.6-2.3-1.6-4.3c0-1.8,0.5-3.3,1.5-4.2c1-1,2.2-1.5,3.8-1.5C117.9,4.6,118.7,4.7,119.5,5.1z M115.3,7.5
		c-0.4,0.4-0.6,1-0.7,1.6h4.8c-0.1-0.7-0.3-1.3-0.7-1.7c-0.4-0.4-1-0.6-1.7-0.6C116.2,6.8,115.7,7.1,115.3,7.5z"/>
</g>
<g>
	<rect x="2" y="1.1" width="3" height="3"/>
	<rect x="5" y="4.1" width="3" height="3"/>
	<rect x="8" y="7.1" width="3" height="3"/>
	<rect x="5" y="10.1" width="3" height="3"/>
	<rect x="2" y="13.1" width="3" height="3"/>
</g>
<rect x="111" y="18.1" width="12" height="2"/>
</svg>
